<svg xmlns="http://www.w3.org/2000/svg" version="1.1" xmlns:xlink="http://www.w3.org/1999/xlink" xmlns:svgjs="http://svgjs.com/svgjs" width="1920" height="1080" preserveAspectRatio="none" viewBox="0 0 1920 1080"><g mask="url(&quot;#SvgjsMask1023&quot;)" fill="none"><rect width="1920" height="1080" x="0" y="0" fill="rgba(0, 151, 144, 1)"></rect><path d="M0,850.169C171.5,862.017,361.777,880.254,500.135,778.225C637.089,677.231,649.044,483.249,711.968,325.145C771.367,175.899,863.118,37.072,859.016,-123.508C854.647,-294.529,827.191,-496.469,688.422,-596.521C548.04,-697.736,347.261,-568.577,180.012,-613.066C19.75,-655.697,-82.656,-853.228,-248.32,-845.701C-416.762,-838.048,-562.096,-709.619,-663.299,-574.752C-761.15,-444.353,-767.266,-274.889,-796.946,-114.583C-827.945,52.851,-905.464,226.458,-840.802,383.982C-775.628,542.752,-607.713,628.839,-457.615,712.062C-315.387,790.921,-162.24,838.961,0,850.169" fill="#007670"></path><path d="M1920 1655.458C2027.3319999999999 1646.233 2125.276 1598.5230000000001 2213.557 1536.783 2299.2 1476.888 2367.006 1398.674 2417.784 1307.33 2471.946 1209.897 2536.041 1103.925 2515.0389999999998 994.446 2494.197 885.803 2390.124 818.23 2309.439 742.549 2236.5969999999998 674.223 2165.677 597.006 2068.191 575.307 1973.21 554.166 1878.429 593.5899999999999 1786.754 626.207 1699.713 657.175 1608.781 688.129 1550.229 759.591 1492.376 830.2 1478.391 924.328 1468.172 1015.037 1458.214 1103.436 1473.3809999999999 1188.444 1492.121 1275.406 1515.7939999999999 1385.2559999999999 1508.104 1515.566 1592.12 1590.191 1677.159 1665.725 1806.677 1665.1970000000001 1920 1655.458" fill="#00b8b0"></path></g><defs><mask id="SvgjsMask1023"><rect width="1920" height="1080" fill="#ffffff"></rect></mask></defs></svg>